<svg version="1" xmlns="http://www.w3.org/2000/svg" width="682.667" height="682.667" viewBox="0 0 512.000000 512.000000"><path d="M246 21.7c-51 2.4-101.5 21.9-140 54.1-26 21.7-46 47.5-61.1 78.7-24.5 50.6-30 106.1-15.8 161.2 5.8 22.6 17.8 49.9 30.4 68.8 38.2 57.4 95.6 93.7 164.5 104.2 15.8 2.4 48.2 2.4 64 0 68.9-10.5 126.2-46.8 164.5-104.2 12.6-18.9 24.6-46.2 30.4-68.8 13.6-52.9 9.2-105.5-13-155.8-17.9-40.9-51.3-79-90-103-39-24.2-89-37.4-133.9-35.2zM317.7 256c21.6 67.9 39.3 123.8 39.3 124.3 0 .4-11.5.6-25.6.5l-25.7-.3-5.8-20c-3.2-11-6.8-23.5-8-27.8l-2.1-7.7h-66.6l-1.5 4.8c-.7 2.6-4.5 15.2-8.3 28l-6.8 23.2h-25.8c-14.2 0-25.8-.2-25.8-.6 0-.3 2.9-9.4 6.4-20.2 3.6-10.8 15.2-46.7 25.9-79.7 10.8-33 25-76.9 31.8-97.5 6.7-20.6 13.1-40.5 14.2-44.3l2-6.7 21.5.2 21.5.3L317.7 256z"/><path d="M247.7 242.2c-4.8 16.1-9.4 31.4-10.2 34l-1.4 4.8h40.7l-9.6-33.3c-5.2-18.2-9.8-33.5-10.2-34-.3-.4-4.6 12.4-9.3 28.5z"/></svg>
